<svg width="51" height="38" viewBox="0 0 51 38" fill="none" xmlns="http://www.w3.org/2000/svg">
<path d="M22.584 8.344V30.136C22.584 32.792 21.544 34.728 19.464 35.944C17.416 37.128 14.696 37.72 11.304 37.72C4.008 37.72 0.36 35.192 0.36 30.136V8.344C0.36 5.688 1.384 3.768 3.432 2.584C5.512 1.368 8.248 0.759997 11.64 0.759997C18.936 0.759997 22.584 3.288 22.584 8.344ZM18.744 30.616V7.864C18.744 6.616 18.104 5.656 16.824 4.984L9.096 34.264C9.544 34.328 10.28 34.36 11.304 34.36C16.264 34.36 18.744 33.112 18.744 30.616ZM4.2 7.864V30.616C4.2 31.896 4.808 32.84 6.024 33.448L13.704 4.216C12.872 4.152 12.184 4.12 11.64 4.12C6.68 4.12 4.2 5.368 4.2 7.864ZM49.3013 37H32.9813C32.3413 37 32.0213 36.44 32.0213 35.32C32.0213 34.2 32.3413 33.64 32.9813 33.64H39.2213V4.84H32.9813C32.3413 4.84 32.0213 4.28 32.0213 3.16C32.0213 2.04 32.3413 1.48 32.9813 1.48H40.1813C41.3973 1.48 42.1813 1.736 42.5333 2.248C42.8853 2.728 43.0613 3.624 43.0613 4.936V33.64H49.3013C49.9413 33.64 50.2613 34.2 50.2613 35.32C50.2613 36.44 49.9413 37 49.3013 37Z" fill="white"/>
</svg>
