<svg width="563" height="487" viewBox="0 0 563 487" fill="none" xmlns="http://www.w3.org/2000/svg">
<g clip-path="url(#clip0)">
<path opacity="0.18" d="M551.448 311.981C545.955 370.12 501.93 424.759 445.993 431.774C403.412 437.112 361.019 416.263 318.282 420.12C265.766 424.808 223.86 462.243 174.655 478.519C138.415 490.564 95.9757 491.654 65.0563 468.753C52.767 459.622 43.0831 447.269 34.4194 434.411C25.1669 421.075 17.5191 406.618 11.6458 391.36C5.47369 374.35 2.35653 356.311 2.44845 338.137V335.679C3.13903 292.971 19.9799 250.115 47.7603 218.1C55.6079 209.067 64.2559 200.75 71.0362 190.854C92.2717 159.929 92.256 118.327 107.967 83.9679C124.635 47.6069 154.801 29.8333 188.593 16.4705C193.427 14.5499 198.339 12.727 203.283 10.9529C242.38 -3.0609 291.474 -4.68852 330.1 11.8481C376.824 31.8515 400.257 77.3598 433.861 112.76C449.728 129.46 469.049 142.058 486.141 157.471C515.302 183.643 537.762 219.158 547.179 257.602C551.642 275.333 553.087 293.735 551.448 311.981Z" fill="#E7FD68"/>
<path opacity="0.37" d="M551.448 311.982C550.867 318.182 549.849 324.329 548.404 330.374C545.586 342.299 541.275 353.79 535.581 364.554C516.998 399.841 484.289 426.973 445.993 431.775C403.412 437.113 361.019 416.264 318.282 420.121C265.766 424.809 223.86 462.244 174.655 478.52C138.415 490.565 95.9757 491.655 65.0563 468.754C52.767 459.623 43.0831 447.27 34.4194 434.412C29.2686 426.816 24.552 418.914 20.2938 410.746C17.0374 404.489 14.1647 398.026 11.6929 391.394C9.96581 386.701 8.48825 381.914 7.26685 377.054C4.07182 364.361 2.48893 351.289 2.55831 338.17L0 339.31L1.03588 337.845C1.55382 337.129 2.05606 336.396 2.60539 335.697C11.4731 323.424 21.4395 311.836 33.3208 302.819C46.3006 292.971 62.1056 286.249 78.3344 286.461C95.2067 286.64 111.749 294.127 128.559 292.076C148.601 289.619 164.658 274.172 178.407 258.84C192.155 243.508 206.093 226.76 225.257 220.184C247.387 212.583 271.353 220.184 293.766 226.809C316.178 233.433 341.259 238.935 361.93 227.769C373.466 221.535 392.629 229.071 402.611 237.73C412.594 246.389 421.728 257.538 434.488 260.207C444.627 262.323 454.892 258.58 464.953 255.845C489.718 249.222 515.696 249.188 540.477 255.748C542.738 256.35 544.998 257.001 547.258 257.668C551.693 275.382 553.111 293.763 551.448 311.982Z" fill="#E7FD68"/>
<path opacity="0.37" d="M194.745 387.699C192.09 387.633 189.483 386.949 187.117 385.697L194.745 387.699Z" fill="#E7FD68"/>
<path opacity="0.37" d="M548.404 330.407C545.586 342.332 541.275 353.823 535.581 364.587C523.9 378.513 508.889 389.005 492.058 395.007L497.379 374.352C482.28 390.63 464.663 404.174 445.255 414.424C456.566 401.686 467.888 388.952 479.219 376.224L454.782 381.302C458.172 374.613 455.237 365.954 449.838 360.892C444.439 355.83 437.141 353.584 430.047 351.859C416.135 348.469 401.947 346.442 387.67 345.804C381.91 345.56 375.396 345.169 371.692 340.579C370.123 338.545 369.244 335.941 367.737 333.808C362.401 326.289 351.492 327.428 342.625 328.714C328.393 330.766 313.985 331.17 299.667 329.918C288.586 328.942 277.396 326.972 266.441 328.926C233.606 334.785 209.765 374.157 176.68 370.007C177.012 373.341 178.151 376.534 179.993 379.288C181.834 382.043 184.317 384.27 187.212 385.762C167.781 380.879 146.828 377.95 130.379 389.017C125.247 392.452 120.272 397.302 114.166 397.155C104.969 396.862 98.0789 385.062 89.0542 386.95C81.9443 388.431 77.1573 398.148 70.0474 396.716C64.6953 395.593 61.9173 388.431 56.5182 387.666C43.9621 385.876 32.3948 407.019 20.4194 410.958C17.163 404.701 14.2903 398.237 11.8184 391.605C10.0428 386.846 8.52324 381.988 7.26685 377.054C8.58992 372.401 10.6362 368.003 13.3252 364.033C29.24 343.118 59.0608 342.679 82.3837 331.676C90.8748 327.672 98.6282 322.171 107.009 317.907C119.299 311.64 132.718 308.141 146.012 304.69L187.447 293.948L257.824 275.702C275.999 270.982 294.425 266.23 313.181 266.441C327.526 266.604 341.683 269.697 355.73 272.74L409.094 284.345C418.511 286.38 428.022 288.496 436.23 293.606C443.811 298.31 449.775 305.293 456.634 311.136C466.575 319.531 478.202 325.514 490.661 328.646C503.121 331.777 516.099 331.979 528.643 329.235C533.085 328.242 537.605 326.842 542.11 327.493C544.432 327.825 546.615 328.835 548.404 330.407Z" fill="#E7FD68"/>
<path opacity="0.37" d="M323.21 293.85C322.504 295.869 321.844 298.278 323.069 300.003C324.293 301.728 326.835 301.777 328.923 301.484C347.631 298.896 363.609 286.152 381.863 281.269C394.958 277.807 408.753 278.481 421.477 283.206C417.443 291.979 408.293 296.764 399.629 300.507C376.369 310.566 349.515 319.86 338.513 343.379C377.022 329.981 418.966 331.954 456.148 348.913C457.53 349.432 458.773 350.286 459.773 351.403C463.273 356.025 456.901 361.901 451.439 363.431C441.112 366.345 430.266 366.41 419.578 366.035C386.32 364.912 352.983 359.834 319.882 363.464C286.781 367.093 252.692 381.091 234.124 409.721C229.667 407.833 227.109 402.706 226.748 397.709C226.387 392.712 227.799 387.813 229.196 383.06C229.889 381.385 229.978 379.508 229.447 377.771C228.286 375.215 224.958 374.906 222.227 374.955L170.669 375.882C169.099 368.786 175.833 362.861 181.907 359.264C208.965 342.988 239.743 332.458 262.721 310.436C276.266 297.415 286.891 280.553 302.853 270.51C308.488 266.962 319.851 260.452 326.396 265.221C334.793 271.373 325.878 286.461 323.21 293.85Z" fill="#E7FD68"/>
<path opacity="0.64" d="M211.884 288.089C210.576 286.199 208.775 284.736 206.692 283.871C204.61 283.006 202.333 282.775 200.129 283.206C197.93 283.674 195.848 284.606 194.012 285.944C192.176 287.283 190.625 288.999 189.456 290.986C188.657 292.604 187.631 294.091 186.411 295.397C183.131 298.359 178.155 297.024 173.855 296.78C169.554 296.536 163.841 298.994 164.563 303.453C160.373 301.972 155.978 300.491 151.631 301.24C147.723 301.923 144.285 304.349 140.409 305.162C134.476 306.399 128.527 303.763 122.642 302.298C116.756 300.833 109.458 301.11 106.021 306.269C105.236 307.441 104.561 308.922 103.227 309.264C102.327 309.396 101.41 309.23 100.606 308.792C94.2336 306.058 87.7986 302.574 80.9084 302.884C76.2157 303.246 71.7997 305.326 68.4479 308.751C65.0961 312.176 63.0264 316.724 62.6079 321.585C59.6228 320.825 56.4714 321.252 53.7751 322.782C51.0789 324.313 49.0336 326.836 48.0428 329.853C40.7289 326.142 27.8589 328.681 21.3611 333.711C18.1171 336.285 15.599 339.716 14.0696 343.644C12.5401 347.572 12.0554 351.853 12.666 356.042C8.47537 357.149 3.59419 358.955 2.55831 363.317C1.19283 369.03 8.47538 373.604 13.8902 371.846C19.305 370.088 22.7893 364.75 25.8499 359.785C28.9104 354.821 32.4261 349.515 37.888 347.871C42.6908 346.406 48.3253 348.066 52.5316 345.267C54.7917 343.753 56.1886 341.23 57.9621 339.131C65.5272 330.211 79.59 330.293 89.6035 336.087C99.617 341.881 106.507 351.94 113.146 361.69C112.29 354.561 109.326 347.882 104.66 342.572C99.9946 337.261 93.8574 333.58 87.0923 332.034C91.4007 327.161 96.7983 323.461 102.81 321.26C108.821 319.059 115.262 318.424 121.566 319.411C127.87 320.398 133.843 322.977 138.96 326.921C144.077 330.865 148.18 336.053 150.909 342.028C152.373 336.246 151.822 330.114 149.352 324.713C146.883 319.311 142.654 314.987 137.411 312.503C144.547 310.125 152.255 310.364 159.242 313.179C166.228 315.994 172.069 321.215 175.785 327.965C174.817 321.697 172.639 315.697 169.382 310.322L199.83 298.603C200.458 304.43 209.028 303.258 213.956 300.231C230.012 290.286 247.622 278.193 265.75 282.587C282.293 286.591 292.918 302.819 301.849 317.76C299.881 310.05 296.44 302.828 291.73 296.524C287.02 290.219 281.137 284.959 274.429 281.057C284.914 279.202 293.986 272.35 304.25 269.501C314.515 266.653 328.264 270.185 330.539 280.895L338.387 277.135L336.661 301.809C339.548 300.182 341.589 297.203 344.508 295.625C350.017 292.646 357.064 295.625 361.082 300.507C365.1 305.39 366.638 311.901 368.098 318.248C373.654 305.911 362.181 292.972 351.869 284.54C354.913 284.692 357.861 285.698 360.398 287.449C362.935 289.2 364.967 291.632 366.277 294.485C369.165 284.247 383.212 284.02 392.959 287.552C402.706 291.083 414.351 296.227 422.482 289.716C420.41 298.587 418.369 308.206 421.807 316.605C425.244 325.003 436.701 330.26 443.152 324.059C443.152 329.821 450.607 332.018 456.116 331.269C461.625 330.521 467.997 328.763 472.219 332.523C474.056 334.15 475.092 336.592 476.928 338.284C477.828 339.078 478.871 339.68 479.996 340.055C481.121 340.431 482.306 340.572 483.483 340.473C484.661 340.373 485.808 340.033 486.86 339.474C487.911 338.914 488.845 338.145 489.61 337.21C495.435 343.286 499.824 350.679 502.433 358.809C504.334 349.747 504.521 340.389 502.982 331.253L513.451 344.502C511.881 339.245 517.468 334.362 522.726 333.792C527.984 333.223 533.179 335.257 538.421 335.42C550.978 335.892 562.686 324.417 563 311.445C547.479 318.74 530.177 320.932 513.419 317.728C510.474 317.026 507.484 316.542 504.473 316.279C501.563 316.276 498.657 316.493 495.778 316.93C485.218 318.071 474.549 317.4 464.199 314.944C467.061 303.256 472.135 292.274 479.125 282.636C473.845 285.076 469.103 288.61 465.189 293.022C461.275 297.433 458.273 302.628 456.367 308.287C456.461 302.867 450.089 298.522 445.381 300.865L442.681 292.727C437.704 292.073 432.652 292.421 427.802 293.753C427.174 285.615 418.385 281.627 410.883 279.234L385.771 271.227C379.932 269.355 372.869 267.727 368.302 271.926C371.331 261.953 376.275 252.718 382.836 244.778C371.994 250.212 363.235 259.277 357.975 270.51C355.581 266.834 351.913 264.255 347.733 263.309C343.554 262.364 339.184 263.124 335.531 265.432C336.676 259.101 330.822 253.29 324.654 252.314C318.486 251.337 312.412 253.778 306.651 256.187L307.907 241.864C300.936 245.52 295.429 251.605 292.353 259.052C277.928 255.049 262.597 256.545 249.145 263.267C251.593 251.112 256.335 239.579 263.098 229.332C249.706 239.132 240.541 253.975 237.562 270.689C233.98 270.027 230.288 270.555 227.013 272.197C223.738 273.84 221.047 276.514 219.324 279.837C215.825 278.646 212.827 276.244 210.833 273.033C211.178 278.486 211.649 282.571 211.884 288.089Z" fill="white"/>
<path d="M327.84 120.444C326.902 120.896 325.901 121.193 324.874 121.323C323.391 121.261 321.925 121.663 320.667 122.478C320.19 123.003 319.821 123.623 319.584 124.301C319.506 124.48 319.443 124.659 319.365 124.822C318.629 126.828 317.477 128.642 315.991 130.136C314.505 131.629 312.72 132.766 310.764 133.465C306.604 134.669 302.241 133.09 298.051 132.049C297.577 131.918 297.08 131.918 296.607 132.049C295.996 132.326 295.458 132.75 295.037 133.286C294.239 134.085 293.247 134.645 292.166 134.905C291.085 135.166 289.957 135.118 288.9 134.767C286.999 133.835 285.268 132.568 283.784 131.023C282.104 129.705 279.844 128.68 277.945 129.575C277.37 129.978 276.741 130.29 276.077 130.503H275.905C275.497 130.864 275.043 131.165 274.555 131.398C273.528 131.778 272.414 131.826 271.36 131.536C270.306 131.245 269.363 130.629 268.654 129.77C267.274 127.984 266.501 125.776 266.456 123.487C266.315 121.225 266.582 118.963 266.566 116.684C266.643 115.755 266.536 114.819 266.252 113.933C265.748 112.813 265.058 111.794 264.212 110.922C261.559 107.667 260.257 103.614 263.411 100.229C265.373 98.1292 268.34 98.7151 270.867 98.7314C273.551 98.6849 276.218 99.1882 278.714 100.213C282.089 101.726 284.992 104.282 288.304 105.795C291.948 107.264 295.864 107.859 299.761 107.537C304.498 107.504 309.113 105.976 312.992 103.159C314.063 102.129 315.23 101.213 316.477 100.424C317.66 99.854 318.94 99.5279 320.243 99.4638C321.94 99.3162 323.648 99.4648 325.297 99.9033C326.16 100.115 326.997 100.426 327.793 100.831C328.546 101.205 329.158 101.222 329.817 101.498C331.28 102.223 332.513 103.363 333.375 104.787C334.236 106.21 334.69 107.858 334.683 109.539C334.681 111.848 334.033 114.107 332.819 116.042C331.604 117.977 329.875 119.506 327.84 120.444Z" fill="#FB682D"/>
<path d="M327.84 120.444C326.902 120.896 325.901 121.193 324.874 121.323C323.391 121.261 321.925 121.663 320.667 122.478C320.19 123.003 319.821 123.623 319.584 124.301C319.506 124.48 319.443 124.659 319.365 124.822C318.629 126.828 317.477 128.642 315.991 130.136C314.505 131.629 312.72 132.766 310.764 133.465C306.604 134.669 302.241 133.09 298.051 132.049C297.577 131.918 297.08 131.918 296.607 132.049C295.996 132.326 295.458 132.75 295.037 133.286C294.239 134.085 293.247 134.645 292.166 134.905C291.085 135.166 289.957 135.118 288.9 134.767C286.999 133.835 285.268 132.568 283.784 131.023C282.104 129.705 279.844 128.68 277.945 129.575C277.37 129.978 276.741 130.29 276.077 130.503H275.905C275.497 130.864 275.043 131.165 274.555 131.398C273.528 131.778 272.414 131.826 271.36 131.536C270.306 131.245 269.363 130.629 268.654 129.77C267.274 127.984 266.501 125.776 266.456 123.487C266.315 121.225 266.582 118.963 266.566 116.684C266.643 115.755 266.536 114.819 266.252 113.933C265.748 112.813 265.058 111.794 264.212 110.922C261.559 107.667 260.257 103.614 263.411 100.229C265.373 98.1292 268.34 98.7151 270.867 98.7314C273.551 98.6849 276.218 99.1882 278.714 100.213C282.089 101.726 284.992 104.282 288.304 105.795C291.948 107.264 295.864 107.859 299.761 107.537C304.498 107.504 309.113 105.976 312.992 103.159C314.063 102.129 315.23 101.213 316.477 100.424C317.66 99.854 318.94 99.5279 320.243 99.4638C321.94 99.3162 323.648 99.4648 325.297 99.9033C326.16 100.115 326.997 100.426 327.793 100.831C328.546 101.205 329.158 101.222 329.817 101.498C331.28 102.223 332.513 103.363 333.375 104.787C334.236 106.21 334.69 107.858 334.683 109.539C334.681 111.848 334.033 114.107 332.819 116.042C331.604 117.977 329.875 119.506 327.84 120.444Z" fill="url(#paint0_linear)"/>
<path d="M308.252 256.952C307.291 256.804 306.31 256.905 305.396 257.245C293.059 261.835 202.765 296.78 168.942 348.197C134.272 400.899 283.517 328.307 328.797 269.387C329.748 268.099 330.166 266.471 329.96 264.863C329.754 263.254 328.941 261.796 327.699 260.81C326.917 260.192 326.001 259.784 325.03 259.622L308.252 256.952Z" fill="#E7FD68"/>
<path d="M309.194 250.653C308.233 250.505 307.252 250.606 306.338 250.946C294.001 255.536 203.691 290.481 169.868 341.898C135.198 394.6 284.443 322.008 329.723 263.088C330.674 261.8 331.093 260.172 330.886 258.564C330.68 256.955 329.867 255.497 328.625 254.511C327.843 253.893 326.927 253.485 325.956 253.323L309.194 250.653Z" fill="#E7FD68"/>
<path d="M249.553 242.06C256.122 249.469 263.047 256.531 270.302 263.219C273.441 266.018 276.752 268.687 279.719 271.764C281.492 273.587 279.719 276.223 277.961 277.379C276.364 278.26 274.725 279.053 273.048 279.755C272.248 280.178 271.353 281.074 271.777 281.92C271.326 281.925 270.892 282.097 270.553 282.406C270.215 282.714 269.994 283.138 269.931 283.601C269.869 284.064 269.968 284.535 270.212 284.928C270.455 285.322 270.827 285.611 271.259 285.745C271.578 285.822 271.909 285.833 272.232 285.778C272.555 285.722 272.865 285.6 273.142 285.419V286.005C273.591 286.095 274.053 286.077 274.494 285.952C274.934 285.828 275.342 285.601 275.685 285.289C279.122 282.994 282.889 281.497 286.358 279.234C287.268 278.648 296.183 272.024 295.618 271.243C293.06 267.857 288.759 266.539 285.432 263.967C276.156 256.806 275.293 240.855 264.698 235.972C262.502 235.275 260.369 234.376 258.326 233.287C254.245 230.487 253.492 224.742 252.629 219.761C252.517 218.548 252.1 217.386 251.42 216.392C249.851 214.504 246.979 214.764 244.875 215.822C233.277 222.235 243.808 235.826 249.553 242.06Z" fill="#E59F89"/>
<path d="M331.387 165.757C329.692 168.849 327.965 171.893 326.208 174.953C325.538 176.217 324.766 177.42 323.9 178.55C323.005 179.36 322.238 180.31 321.625 181.366C321.197 182.839 320.97 184.368 320.95 185.907C320.196 190.79 315.362 193.687 313.306 198.114C312.958 199.156 312.426 200.122 311.737 200.962C311.57 201.163 311.366 201.328 311.138 201.448C310.91 201.567 310.661 201.639 310.406 201.658C310.151 201.678 309.894 201.645 309.651 201.562C309.408 201.479 309.184 201.347 308.99 201.174C308.799 200.875 308.676 200.536 308.629 200.181C307.28 195.304 307.733 190.081 309.9 185.532L307.782 186.151H307.138C306.931 186.055 306.769 185.878 306.686 185.658C306.604 185.439 306.609 185.195 306.699 184.979V184.865C306.775 184.737 306.871 184.622 306.981 184.523C307.244 184.279 307.547 184.086 307.876 183.954C309.527 183.281 311.105 182.43 312.584 181.414C315.723 179.038 315.88 175.034 316.775 171.372C317.026 170.33 319.584 159.035 319.757 159.067C310.12 155.573 300.368 152.416 290.501 149.595C287.849 157.505 292.51 165.871 297.219 172.707C298.537 174.578 299.887 176.548 301.142 178.582C304.281 183.84 306.808 189.487 305.773 195.461C305.652 196.177 305.484 196.884 305.27 197.577C303.701 202.704 299.557 206.822 295.194 209.947C285.62 216.799 274.335 220.249 263.568 224.595C256.443 227.427 236.51 233.482 242.019 244.875C243.402 247.174 244.922 249.381 246.57 251.483C254.151 263.17 248.234 280.162 255.266 292.174C256.458 294.208 258.059 296.308 257.745 298.684C257.326 300.451 256.348 302.021 254.967 303.144C251.378 306.726 247.606 310.105 243.667 313.268C242.362 314.522 240.719 315.334 238.958 315.595C237.939 315.54 236.942 315.267 236.029 314.793C235.117 314.32 234.308 313.657 233.653 312.845C232.461 311.591 231.362 309.817 231.896 308.141C232.523 306.188 234.893 305.667 236.745 304.886C239.741 303.518 242.418 301.497 244.593 298.961C247.041 295.397 243.62 290.449 242.176 287.145L229.981 259.264C226.999 252.46 223.969 245.347 224.189 237.86C224.55 226.353 232.602 216.604 241.454 209.768C248.595 204.315 256.553 200.002 263.6 194.533C265.408 193.151 267.142 191.668 268.795 190.09C269.928 189.114 270.676 187.742 270.898 186.232C270.855 185.493 270.69 184.766 270.411 184.084C269.47 181.414 268.481 178.767 267.445 176.141C267.066 174.797 266.279 173.615 265.201 172.772C263.854 172.251 262.443 171.928 261.01 171.812C260.124 171.521 259.303 171.049 258.596 170.422C257.89 169.796 257.312 169.029 256.898 168.166C256.084 166.429 255.609 164.543 255.501 162.615C255.187 159.36 255.862 156.105 255.846 152.85C255.831 149.595 255.124 146.681 255.156 143.572C255.187 140.464 256.129 136.915 258.671 135.109C262.25 132.553 269.58 133.269 273.817 132.928C280.523 132.587 287.234 133.48 293.64 135.564C306.322 139.308 317.921 146.16 329.252 152.996C330.724 153.725 331.981 154.849 332.894 156.251C334.652 159.051 333.035 162.762 331.387 165.757Z" fill="#FFB79C"/>
<path d="M262.517 135.825C262.311 138.243 261.783 140.621 260.947 142.889C260.134 145.262 259.782 147.779 259.911 150.294C259.984 151.554 260.338 152.778 260.945 153.872C261.553 154.965 262.397 155.897 263.411 156.593C264.715 157.285 266.182 157.579 267.641 157.441C269.099 157.302 270.49 156.738 271.651 155.812C273.963 153.935 275.715 151.419 276.705 148.553C277.693 146.441 278.07 144.078 277.788 141.749C277.254 138.999 275.261 136.867 273.99 134.36C271.793 130.063 271.84 124.952 271.965 120.086C269.391 119.044 266.613 121.127 265.028 123.471C264.039 124.936 261.591 127.736 261.136 129.412C260.539 131.414 262.548 133.465 262.517 135.825Z" fill="#FFB79C"/>
<path d="M249.16 141.229C241.046 149.66 242.521 163.82 236.934 174.237C236.621 174.914 236.165 175.509 235.6 175.978C234.784 176.478 233.862 176.763 232.916 176.808C223.075 178.094 213.532 181.154 204.068 184.181C200.983 184.977 198.053 186.314 195.404 188.137C194.089 189.061 193.02 190.317 192.299 191.785C191.577 193.254 191.225 194.888 191.277 196.535C195.581 195.829 199.585 193.812 202.781 190.741L203.126 194.468C203.833 195.054 204.931 194.566 205.465 193.801C205.999 193.036 206.187 192.075 206.642 191.278C207.992 188.885 211.052 188.413 213.705 188.185L235.035 186.362C237.548 186.33 240.029 185.777 242.333 184.735C247.481 181.919 248.878 175.164 251.169 169.598C253.461 164.031 257.196 159.002 260.288 153.745C262.156 150.49 268.591 139.422 264.761 135.841C261.167 132.537 251.687 138.592 249.16 141.229Z" fill="#FFB79C"/>
<path d="M263.349 135.45C263.835 136.329 264.573 137.306 265.562 137.208C265.885 137.152 266.192 137.024 266.463 136.833C266.734 136.642 266.962 136.392 267.131 136.102C267.854 134.937 268.385 133.655 268.701 132.309C269.845 128.889 270.242 125.247 269.862 121.648C268.575 123.927 265.985 124.903 264.086 126.726C263.082 127.638 261.277 129.542 261.34 131.056C261.696 132.654 262.382 134.153 263.349 135.45Z" fill="#E59F89"/>
<path d="M252.786 124.334C253.053 127.28 253.853 130.73 256.505 131.853C258.875 132.863 261.512 131.512 263.678 130.079C265.277 129.102 266.74 127.903 268.026 126.515C268.858 125.538 269.595 124.448 270.38 123.471C272.263 121.241 275.089 119.353 275.293 116.391C275.368 115.942 275.318 115.479 275.149 115.058C274.979 114.637 274.697 114.275 274.335 114.015C273.692 113.673 272.844 113.836 272.263 113.364C271.886 112.955 271.648 112.429 271.589 111.866C271.012 108.958 269.707 106.258 267.806 104.037C266.838 102.944 265.658 102.076 264.343 101.49C263.029 100.903 261.609 100.612 260.178 100.636C255.862 100.847 253.9 103.891 253.414 107.862C252.648 113.315 252.437 118.836 252.786 124.334Z" fill="#FFB79C"/>
<path d="M301.095 178.68C304.234 183.937 306.761 189.585 305.725 195.559C305.604 196.275 305.437 196.982 305.223 197.674H305.129C304.564 194.973 304.281 192.58 302.539 190.285C300.258 187.448 297.198 185.399 293.766 184.409C289.946 183.235 285.915 182.995 281.99 183.71C278.066 184.424 274.355 186.073 271.149 188.527C268.528 190.578 266.299 193.133 263.584 195.038C263.611 194.871 263.653 194.708 263.71 194.549C265.518 193.167 267.252 191.684 268.905 190.106C269.815 189.211 271.149 187.648 270.349 186.249C270.129 185.842 269.784 185.5 269.58 185.077C269.362 184.599 269.312 184.058 269.438 183.547C269.548 183.123 269.862 182.684 270.286 182.668C270.59 182.702 270.881 182.814 271.133 182.993C272.177 183.321 273.302 183.216 274.272 182.7C277.534 181.43 280.881 180.407 284.286 179.64C287.802 178.928 291.376 178.563 294.959 178.55C296.983 178.582 299.039 178.615 301.095 178.68Z" fill="#E7FD68"/>
<path d="M255.14 151.776C254.521 154.587 254.111 157.444 253.916 160.321C253.897 161.777 253.965 163.234 254.12 164.683C254.058 165.895 254.307 167.102 254.842 168.182C255.47 169.096 256.227 169.908 257.086 170.591C259.409 172.642 262.03 174.823 265.106 174.79C267.665 174.79 269.611 173.162 271.667 171.812C273.926 170.365 276.318 169.154 278.808 168.198C282.073 166.896 285.589 166.408 288.853 165.106C289.503 164.906 290.092 164.536 290.564 164.031C290.989 163.367 291.238 162.598 291.286 161.802C291.754 158.46 291.995 155.088 292.008 151.71C292.058 151.14 291.926 150.568 291.631 150.083C291.205 149.654 290.652 149.384 290.062 149.318C286.622 148.364 283.667 146.079 281.804 142.933C279.941 139.786 279.313 136.019 280.048 132.407C278.5 132.028 276.926 131.778 275.34 131.658C274.885 131.658 274.367 131.658 274.115 132.016C273.991 132.267 273.931 132.548 273.943 132.83C273.877 137.376 272.201 141.738 269.234 145.086C268.041 146.437 266.299 147.69 264.62 147.137C263.929 146.794 263.335 146.272 262.895 145.622C262.456 144.973 262.185 144.216 262.109 143.426C261.85 142.026 261.787 140.596 261.92 139.178C262.283 137.895 262.499 136.573 262.564 135.239C262.187 133.611 260.194 133.969 259.205 134.848C257.479 136.476 257.432 140.415 257.008 142.579L255.14 151.776Z" fill="#E7FD68"/>
<path d="M248.093 101.205C248.901 98.5145 250.603 96.2077 252.896 94.6949C257.133 91.7001 262.454 90.8863 267.586 90.8212C270.149 90.722 272.712 91.0015 275.198 91.6513C280.645 93.2789 284.961 97.4293 289.324 101.173C290.65 102.398 292.128 103.432 293.719 104.249C298.977 106.625 305.176 104.103 309.602 100.326C311.048 98.8436 312.712 97.6075 314.53 96.6643C316.046 96.119 317.635 95.8278 319.239 95.8017C321.982 95.4547 324.765 95.6929 327.416 96.5016C328.716 96.9282 329.878 97.7171 330.774 98.782C331.671 99.8469 332.269 101.147 332.501 102.54C332.8 106.316 329.519 109.36 326.223 111.004C320.087 114.047 313.149 114.454 306.463 114.373C303.327 114.568 300.182 114.568 297.046 114.373C293.637 113.874 290.335 112.773 287.284 111.118C284.474 109.636 281.555 107.862 278.416 108.09C276.846 108.237 275.277 108.888 273.707 109.132C272.922 109.326 272.101 109.297 271.33 109.048C270.56 108.799 269.868 108.338 269.328 107.716C268.701 106.804 268.434 105.405 267.382 105.112C266.582 104.9 265.813 105.47 265.122 105.877C264.078 106.479 262.907 106.809 261.712 106.837C260.517 106.866 259.333 106.592 258.263 106.039C257.526 105.649 256.019 104.412 255.219 105.128C254.894 105.48 254.671 105.92 254.575 106.398L252.896 112.127C250.463 109.799 248.187 106.951 247.936 103.533C247.867 102.753 247.92 101.967 248.093 101.205Z" fill="#FB682D"/>
</g>
<defs>
<linearGradient id="paint0_linear" x1="293.678" y1="89.6182" x2="311.416" y2="154.045" gradientUnits="userSpaceOnUse">
<stop offset="0.01"/>
<stop offset="0.13" stop-opacity="0.69"/>
<stop offset="0.25" stop-opacity="0.32"/>
<stop offset="1" stop-opacity="0"/>
</linearGradient>
<clipPath id="clip0">
<rect width="563" height="487" fill="white"/>
</clipPath>
</defs>
</svg>
