<svg width="252" height="179" viewBox="0 0 252 179" fill="none" xmlns="http://www.w3.org/2000/svg">
<g clip-path="url(#clip0)">
<path d="M14.1272 178.478C10.2396 178.121 6.80735 174.981 4.85544 171.212C4.20087 169.947 3.75237 168.289 4.49363 167.086C4.7058 166.742 4.99903 166.469 5.34098 166.299C5.68294 166.129 6.06037 166.067 6.43167 166.121C6.80297 166.175 7.15374 166.342 7.44533 166.605C7.73692 166.867 7.95801 167.214 8.08423 167.607C7.84548 166.13 7.74289 164.63 7.77806 163.13C7.80794 161.859 8.02296 160.423 8.96919 159.717C10.0669 158.897 11.6492 159.548 12.4477 160.722C13.2461 161.896 13.4628 163.424 13.6544 164.882C13.498 164.265 13.4827 163.614 13.6101 162.988C13.7374 162.362 14.0033 161.782 14.3833 161.301C14.7634 160.82 15.2455 160.453 15.7855 160.233C16.3256 160.014 16.9064 159.949 17.4747 160.045C19.0825 160.316 20.342 161.869 20.8335 163.6C21.325 165.33 21.1715 167.206 20.8552 168.986C20.4843 171.074 19.8823 173.145 18.7986 174.896C17.7148 176.647 16.1051 178.059 14.2374 178.487L14.1272 178.478Z" fill="#F2F2F2"/>
<path d="M252 37.5466C252 45.3335 249.832 52.9279 245.795 59.2789C241.759 65.6299 236.054 70.4235 229.469 72.9963C229.26 73.0777 229.047 73.1592 228.835 73.2336V35.0813H184.799C184.811 34.844 184.827 34.6066 184.846 34.3729H228.835V26.9202C228.835 26.4505 228.667 26.0002 228.37 25.6681C228.072 25.336 227.669 25.1493 227.248 25.1491H186.604C186.677 24.9118 186.753 24.6745 186.836 24.4407C189.589 16.1912 194.852 9.28378 201.704 4.9252C208.557 0.566626 216.563 -0.966006 224.325 0.595062C232.087 2.15613 239.11 6.71165 244.169 13.4658C249.227 20.2199 251.999 28.7432 252 37.5466V37.5466Z" fill="#F2F2F2"/>
<path d="M227.248 24.4407H72.7076C72.1187 24.4414 71.554 24.7029 71.1376 25.1677C70.7212 25.6326 70.4869 26.2628 70.4863 26.9202V143.811C70.4869 144.468 70.7212 145.098 71.1376 145.563C71.554 146.028 72.1187 146.289 72.7076 146.29H227.248C227.837 146.289 228.402 146.028 228.818 145.563C229.235 145.098 229.469 144.468 229.469 143.811V26.9202C229.469 26.2628 229.235 25.6326 228.818 25.1677C228.402 24.7029 227.837 24.4414 227.248 24.4407V24.4407ZM228.835 143.811C228.835 144.28 228.667 144.731 228.37 145.063C228.072 145.395 227.669 145.581 227.248 145.582H72.7076C72.2868 145.581 71.8833 145.395 71.5858 145.063C71.2883 144.731 71.1211 144.28 71.1209 143.811V26.9202C71.1211 26.4505 71.2883 26.0002 71.5858 25.6681C71.8833 25.336 72.2868 25.1493 72.7076 25.1491H227.248C227.669 25.1493 228.072 25.336 228.37 25.6681C228.667 26.0002 228.835 26.4505 228.835 26.9202V143.811Z" fill="#3F3D56"/>
<path d="M229.152 34.3729H70.8036V35.0813H229.152V34.3729Z" fill="#3F3D56"/>
<path d="M76.1982 31.8792C77.2498 31.8792 78.1022 30.9277 78.1022 29.7539C78.1022 28.5802 77.2498 27.6286 76.1982 27.6286C75.1467 27.6286 74.2943 28.5802 74.2943 29.7539C74.2943 30.9277 75.1467 31.8792 76.1982 31.8792Z" fill="#3F3D56"/>
<path d="M81.6722 31.8792C82.7238 31.8792 83.5762 30.9277 83.5762 29.7539C83.5762 28.5802 82.7238 27.6286 81.6722 27.6286C80.6207 27.6286 79.7682 28.5802 79.7682 29.7539C79.7682 30.9277 80.6207 31.8792 81.6722 31.8792Z" fill="#3F3D56"/>
<path d="M87.1462 31.8792C88.1977 31.8792 89.0502 30.9277 89.0502 29.7539C89.0502 28.5802 88.1977 27.6286 87.1462 27.6286C86.0946 27.6286 85.2422 28.5802 85.2422 29.7539C85.2422 30.9277 86.0946 31.8792 87.1462 31.8792Z" fill="#3F3D56"/>
<path d="M113.961 48.8814H86.0355C85.4466 48.8822 84.882 49.1436 84.4655 49.6085C84.0491 50.0733 83.8149 50.7036 83.8142 51.3609V82.5317C83.8149 83.1891 84.0491 83.8193 84.4655 84.2842C84.882 84.749 85.4466 85.0105 86.0355 85.0112H113.961C114.55 85.0105 115.114 84.749 115.531 84.2842C115.947 83.8193 116.181 83.1891 116.182 82.5317V51.3609C116.181 50.7036 115.947 50.0733 115.531 49.6085C115.114 49.1436 114.55 48.8822 113.961 48.8814V48.8814ZM115.547 82.5317C115.547 83.0014 115.38 83.4517 115.082 83.7838C114.785 84.1159 114.381 84.3026 113.961 84.3028H86.0355C85.6148 84.3026 85.2113 84.1159 84.9138 83.7838C84.6163 83.4517 84.449 83.0014 84.4489 82.5317V51.3609C84.449 50.8913 84.6163 50.4409 84.9138 50.1088C85.2113 49.7767 85.6148 49.5901 86.0355 49.5899H113.961C114.381 49.5901 114.785 49.7767 115.082 50.1088C115.38 50.4409 115.547 50.8913 115.547 51.3609V82.5317Z" fill="#3F3D56"/>
<path d="M164.099 49.0586H136.174C135.627 49.0597 135.103 49.3027 134.717 49.7342C134.33 50.1658 134.112 50.7507 134.111 51.3609V82.5317C134.112 83.142 134.33 83.7269 134.717 84.1585C135.103 84.59 135.627 84.8329 136.174 84.8341H164.099C164.646 84.8329 165.17 84.59 165.556 84.1585C165.943 83.7269 166.161 83.142 166.162 82.5317V51.3609C166.161 50.7507 165.943 50.1658 165.556 49.7342C165.17 49.3027 164.646 49.0597 164.099 49.0586V49.0586Z" fill="#6C63FF"/>
<path d="M214.238 49.0586H186.312C185.766 49.0597 185.242 49.3027 184.855 49.7342C184.468 50.1658 184.251 50.7507 184.25 51.3609V82.5317C184.251 83.142 184.468 83.7269 184.855 84.1585C185.242 84.59 185.766 84.8329 186.312 84.8341H214.238C214.784 84.8329 215.308 84.59 215.695 84.1585C216.081 83.7269 216.299 83.142 216.3 82.5317V51.3609C216.299 50.7507 216.081 50.1658 215.695 49.7342C215.308 49.3027 214.784 49.0597 214.238 49.0586V49.0586Z" fill="#E6E6E6"/>
<path d="M113.961 95.8147H86.0356C85.4888 95.8159 84.9648 96.0588 84.5782 96.4904C84.1916 96.9219 83.974 97.5068 83.9729 98.1171V129.288C83.974 129.898 84.1916 130.483 84.5782 130.915C84.9648 131.346 85.4888 131.589 86.0356 131.59H113.961C114.507 131.589 115.031 131.346 115.418 130.915C115.805 130.483 116.022 129.898 116.023 129.288V98.1171C116.022 97.5068 115.805 96.9219 115.418 96.4904C115.031 96.0588 114.507 95.8159 113.961 95.8147V95.8147Z" fill="#E6E6E6"/>
<path d="M164.099 95.8147H136.174C135.627 95.8159 135.103 96.0588 134.717 96.4904C134.33 96.9219 134.112 97.5068 134.111 98.1171V129.288C134.112 129.898 134.33 130.483 134.717 130.915C135.103 131.346 135.627 131.589 136.174 131.59H164.099C164.646 131.589 165.17 131.346 165.556 130.915C165.943 130.483 166.161 129.898 166.162 129.288V98.1171C166.161 97.5068 165.943 96.9219 165.556 96.4904C165.17 96.0588 164.646 95.8159 164.099 95.8147V95.8147Z" fill="#6C63FF"/>
<path d="M214.238 95.8147H186.312C185.766 95.8159 185.242 96.0588 184.855 96.4904C184.468 96.9219 184.251 97.5068 184.25 98.1171V129.288C184.251 129.898 184.468 130.483 184.855 130.915C185.242 131.346 185.766 131.589 186.312 131.59H214.238C214.784 131.589 215.308 131.346 215.695 130.915C216.081 130.483 216.299 129.898 216.3 129.288V98.1171C216.299 97.5068 216.081 96.9219 215.695 96.4904C215.308 96.0588 214.784 95.8159 214.238 95.8147V95.8147Z" fill="#E6E6E6"/>
<path d="M107.138 100.951H79.2129C78.6661 100.95 78.1418 100.707 77.7551 100.276C77.3684 99.8441 77.1509 99.2588 77.1503 98.6484V67.4776C77.1509 66.8672 77.3684 66.282 77.7551 65.8504C78.1418 65.4188 78.6661 65.176 79.2129 65.1753H107.138C107.685 65.176 108.209 65.4188 108.596 65.8504C108.983 66.282 109.2 66.8672 109.201 67.4776V98.6484C109.2 99.2588 108.983 99.8441 108.596 100.276C108.209 100.707 107.685 100.95 107.138 100.951V100.951Z" fill="#6C63FF"/>
<path d="M64.3377 174.304L68.0569 173.03L65.4243 156.411L59.9351 158.291L64.3377 174.304Z" fill="#A0616A"/>
<path d="M76.2896 174.428L64.6007 178.432L63.2147 173.391L70.3875 170.934C70.9805 170.731 71.6036 170.66 72.2212 170.726C72.8388 170.791 73.4387 170.992 73.9868 171.317C74.5349 171.641 75.0203 172.083 75.4154 172.617C75.8106 173.15 76.1076 173.766 76.2896 174.428V174.428V174.428Z" fill="#2F2E41"/>
<path d="M32.6052 174.4L36.4957 174.399L38.3464 157.649L32.6046 157.65L32.6052 174.4Z" fill="#A0616A"/>
<path d="M43.9987 178.432L31.7716 178.432L31.7714 173.159L39.2744 173.159C39.8947 173.159 40.509 173.295 41.0822 173.56C41.6554 173.825 42.1762 174.213 42.6149 174.703C43.0535 175.193 43.4015 175.774 43.639 176.414C43.8764 177.053 43.9986 177.739 43.9987 178.431L43.9987 178.432Z" fill="#2F2E41"/>
<path d="M32.3261 125.845C32.0064 125.532 31.7521 125.145 31.5811 124.711C31.41 124.276 31.3263 123.806 31.336 123.331C31.3456 122.857 31.4483 122.391 31.6368 121.965C31.8252 121.54 32.095 121.166 32.427 120.87L35.4433 78.4725L41.5776 80.1833L36.6661 121.541C37.075 122.196 37.2544 122.996 37.1701 123.79C37.0858 124.583 36.7438 125.314 36.2089 125.845C35.6739 126.375 34.9832 126.668 34.2675 126.668C33.5519 126.668 32.8611 126.376 32.3261 125.845V125.845Z" fill="#A0616A"/>
<path d="M44.6102 62.0285C48.9147 62.0285 52.4042 58.1335 52.4042 53.3287C52.4042 48.5239 48.9147 44.6288 44.6102 44.6288C40.3057 44.6288 36.8162 48.5239 36.8162 53.3287C36.8162 58.1335 40.3057 62.0285 44.6102 62.0285Z" fill="#A0616A"/>
<path d="M37.8331 77.1684C36.0744 74.4735 36.0203 70.7618 37.9147 68.1841C39.1509 66.5019 41.2189 65.1558 44.6714 65.1558C53.8741 65.1558 57.3647 73.3027 57.3647 73.3027C57.3647 73.3027 61.1727 81.0954 58.9514 88.1796C56.73 95.2639 56.73 95.9723 56.73 95.9723L42.1328 94.5555C42.1328 94.5555 44.5953 87.5308 37.8331 77.1684Z" fill="#CCCCCC"/>
<path d="M33.3317 84.2204L36.4764 72.7365C36.687 71.9675 37.0463 71.2596 37.529 70.6627C38.0117 70.0658 38.6059 69.5945 39.2697 69.2821C39.9335 68.9698 40.6507 68.824 41.3705 68.855C42.0903 68.886 42.7953 69.0931 43.4355 69.4617V69.4617C44.5463 70.1039 45.3967 71.1935 45.8144 72.5096C46.2321 73.8258 46.1857 75.27 45.6847 76.5494L41.6869 86.7123L33.3317 84.2204Z" fill="#CCCCCC"/>
<path d="M56.4127 94.2013L68.7886 165.752L62.1247 167.878L45.9407 120.767L38.6421 168.94L31.6608 170.003C31.6608 170.003 28.5985 106.264 42.1328 94.5555L56.4127 94.2013Z" fill="#2F2E41"/>
<path d="M74.225 90.8477C74.1121 90.9978 74.0099 91.1576 73.9195 91.3257L58.2005 92.1764L55.1736 81.8618L49.918 84.65L54.8645 100.013L74.3049 95.769C74.7617 96.3256 75.3596 96.7139 76.0189 96.8821C76.6782 97.0503 77.3678 96.9905 77.9959 96.7106C78.624 96.4307 79.1609 95.9439 79.5352 95.3151C79.9094 94.6863 80.1033 93.9452 80.0911 93.1904C80.0788 92.4356 79.861 91.7029 79.4665 91.0896C79.0721 90.4764 78.5198 90.0117 77.883 89.7574C77.2462 89.503 76.5551 89.4712 75.9017 89.6659C75.2482 89.8607 74.6634 90.2729 74.225 90.8477V90.8477Z" fill="#A0616A"/>
<path d="M47.7188 74.3314C47.6346 73.5328 47.7086 72.7233 47.9355 71.9601C48.1624 71.197 48.5367 70.4987 49.032 69.9148C49.5273 69.3309 50.1314 68.8755 50.8017 68.5809C51.472 68.2863 52.1921 68.1596 52.9111 68.2098V68.2098C54.1594 68.2993 55.3306 68.9153 56.1871 69.9329C57.0436 70.9506 57.5213 72.2938 57.5234 73.6901V84.7894L48.9757 86.2574L47.7188 74.3314Z" fill="#CCCCCC"/>
<path d="M46.3243 62.1074C45.1545 62.1017 44.2521 60.727 44.3045 59.4225C44.3569 58.1181 45.1418 56.9704 46.0875 56.2017C47.0331 55.433 48.1421 54.9648 49.1967 54.3997C50.2513 53.8345 51.2966 53.1296 51.9477 52.0448C52.3411 51.3347 52.5759 50.5296 52.6324 49.6972C52.6889 48.8648 52.5655 48.0294 52.2725 47.2613C51.6665 45.7251 50.6262 44.453 49.3107 43.6398C47.3567 42.363 45.0435 41.9548 42.8319 42.4964C40.6203 43.038 38.6726 44.4896 37.3768 46.5622L36.0415 50.6207C34.6808 52.4471 34.465 55.1594 35.3014 57.3436C36.1378 59.5278 37.9188 61.1711 39.9284 61.9524C41.9674 62.6838 44.1501 62.7568 46.2247 62.1631" fill="#2F2E41"/>
<path d="M39.2013 48.5905C38.6272 47.5635 37.6322 46.9104 36.6036 46.5271C35.412 46.083 34.1446 45.9519 32.9001 46.1441C31.6557 46.3362 30.4677 46.8464 29.4288 47.6348C28.3899 48.4233 27.528 49.4688 26.9103 50.6899C26.2926 51.911 25.9358 53.2747 25.8675 54.675C25.7585 56.9116 26.3859 59.0988 26.7546 61.3006C27.1233 63.5024 27.1966 65.9343 26.109 67.8167C25.2806 69.2505 23.8991 70.1532 22.5356 70.9241C21.3991 71.5665 20.1699 72.1694 18.9011 72.0414C17.6324 71.9134 16.3573 70.7917 16.3909 69.3702C15.9662 70.3894 15.6794 71.4734 15.54 72.5866C15.4507 73.7045 15.6976 74.9107 16.4209 75.6902C17.4723 76.8232 19.1381 76.7403 20.5829 76.4958C23.7109 75.9666 26.8782 74.9743 29.3494 72.7694C31.8206 70.5645 33.4603 66.9338 32.8095 63.4779C32.5377 62.0343 31.8988 60.7165 31.3826 59.3585C30.8663 58.0006 30.4633 56.5153 30.7004 55.0641C30.8408 54.3164 31.1265 53.6123 31.5373 53.0014C31.9481 52.3904 32.4741 51.8876 33.0781 51.5284C34.2995 50.8195 35.6971 50.5829 37.0519 50.8557C37.9401 51.0184 39.0492 51.2711 39.576 50.4564C39.7156 50.1983 39.7869 49.9014 39.7817 49.6C39.7764 49.2985 39.6948 49.0049 39.5463 48.7531C39.2423 48.255 38.8553 47.8269 38.4062 47.4923" fill="#2F2E41"/>
<path d="M97.8917 179H0.3776C0.327889 179 0.278635 178.989 0.232666 178.968C0.186698 178.947 0.144918 178.916 0.109716 178.877C0.0745135 178.838 0.0465828 178.791 0.0275258 178.74C0.00846886 178.689 -0.00134277 178.634 -0.00134277 178.578C-0.00134277 178.523 0.00846886 178.468 0.0275258 178.417C0.0465828 178.365 0.0745135 178.319 0.109716 178.28C0.144918 178.24 0.186698 178.209 0.232666 178.188C0.278635 178.167 0.327889 178.156 0.3776 178.156H97.8917C97.9414 178.156 97.9907 178.167 98.0366 178.188C98.0826 178.209 98.1244 178.24 98.1596 178.28C98.1948 178.319 98.2227 178.365 98.2418 178.417C98.2608 178.468 98.2706 178.523 98.2706 178.578C98.2706 178.634 98.2608 178.689 98.2418 178.74C98.2227 178.791 98.1948 178.838 98.1596 178.877C98.1244 178.916 98.0826 178.947 98.0366 178.968C97.9907 178.989 97.9414 179 97.8917 179V179Z" fill="#3F3D56"/>
</g>
<defs>
<clipPath id="clip0">
<rect width="252" height="179" fill="white"/>
</clipPath>
</defs>
</svg>
