<svg width="237" height="182" viewBox="0 0 237 182" fill="none" xmlns="http://www.w3.org/2000/svg">
<g clip-path="url(#clip0)">
<path d="M52.5171 18.2311H37.4031C35.9501 18.2326 34.5569 18.8622 33.5294 19.982C32.502 21.1017 31.9242 22.6199 31.9228 24.2034V42.0605C31.7296 42.0479 31.5364 42.029 31.346 42.0039C27.7654 41.5934 24.3612 40.1009 21.5172 37.6948C18.6733 35.2887 16.5027 32.0646 15.2502 28.386C13.9977 24.7075 13.7131 20.7208 14.4285 16.8754C15.1438 13.03 16.8307 9.47882 19.2989 6.62231C21.7672 3.7658 24.9186 1.71752 28.3979 0.708418C31.8771 -0.300688 35.5459 -0.230494 38.9905 0.91109C42.4352 2.05267 45.5187 4.22025 47.8934 7.16942C50.2681 10.1186 51.8395 13.7321 52.4306 17.6025C52.4623 17.8099 52.4912 18.0205 52.5171 18.2311Z" fill="#F2F2F2"/>
<path d="M230.943 17.6025H37.4031C35.7972 17.6044 34.2576 18.3005 33.122 19.538C31.9865 20.7755 31.3478 22.4533 31.346 24.2034V135.476C31.3478 137.226 31.9865 138.904 33.122 140.142C34.2576 141.379 35.7972 142.075 37.4031 142.077H230.943C232.549 142.075 234.088 141.379 235.224 140.142C236.36 138.904 236.998 137.226 237 135.476V24.2034C236.998 22.4533 236.36 20.7755 235.224 19.538C234.088 18.3005 232.549 17.6044 230.943 17.6025ZM236.423 135.476C236.422 137.06 235.844 138.578 234.817 139.698C233.789 140.817 232.396 141.447 230.943 141.448H37.4031C35.9501 141.447 34.5569 140.817 33.5295 139.698C32.502 138.578 31.9242 137.06 31.9229 135.476V24.2034C31.9242 22.6199 32.502 21.1017 33.5295 19.982C34.5569 18.8623 35.9501 18.2326 37.4031 18.2311H230.943C232.396 18.2326 233.789 18.8623 234.817 19.982C235.844 21.1017 236.422 22.6199 236.423 24.2034V135.476Z" fill="#3F3D56"/>
<path d="M221.425 35.6355H46.9215C46.845 35.6355 46.7716 35.6024 46.7175 35.5434C46.6634 35.4845 46.6331 35.4045 46.6331 35.3211C46.6331 35.2378 46.6634 35.1578 46.7175 35.0989C46.7716 35.0399 46.845 35.0068 46.9215 35.0068H221.425C221.501 35.0068 221.574 35.0399 221.628 35.0989C221.683 35.1578 221.713 35.2378 221.713 35.3211C221.713 35.4045 221.683 35.4845 221.628 35.5434C221.574 35.6024 221.501 35.6355 221.425 35.6355Z" fill="#3F3D56"/>
<path d="M96.2438 128.561C96.1673 128.561 96.094 128.528 96.0399 128.469C95.9858 128.41 95.9554 128.33 95.9554 128.247V24.8321C95.9554 24.7487 95.9858 24.6687 96.0399 24.6098C96.094 24.5508 96.1673 24.5177 96.2438 24.5177C96.3203 24.5177 96.3937 24.5508 96.4478 24.6098C96.5019 24.6687 96.5322 24.7487 96.5322 24.8321V128.247C96.5322 128.33 96.5019 128.41 96.4478 128.469C96.3937 128.528 96.3203 128.561 96.2438 128.561V128.561Z" fill="#3F3D56"/>
<path d="M139.798 128.561C139.721 128.561 139.648 128.528 139.594 128.469C139.539 128.41 139.509 128.33 139.509 128.247V24.8321C139.509 24.7487 139.539 24.6687 139.594 24.6098C139.648 24.5508 139.721 24.5177 139.798 24.5177C139.874 24.5177 139.947 24.5508 140.001 24.6098C140.056 24.6687 140.086 24.7487 140.086 24.8321V128.247C140.086 128.33 140.056 128.41 140.001 128.469C139.947 128.528 139.874 128.561 139.798 128.561V128.561Z" fill="#3F3D56"/>
<path d="M183.351 128.561C183.275 128.561 183.201 128.528 183.147 128.469C183.093 128.41 183.063 128.33 183.063 128.247V24.8321C183.063 24.7487 183.093 24.6687 183.147 24.6098C183.201 24.5508 183.275 24.5177 183.351 24.5177C183.428 24.5177 183.501 24.5508 183.555 24.6098C183.609 24.6687 183.64 24.7487 183.64 24.8321V128.247C183.64 128.33 183.609 128.41 183.555 128.469C183.501 128.528 183.428 128.561 183.351 128.561V128.561Z" fill="#3F3D56"/>
<path d="M68.2414 68.0799H57.7019C57.3578 68.0795 57.0279 67.9303 56.7846 67.6651C56.5412 67.4 56.4044 67.0404 56.404 66.6654V53.1116C56.4044 52.7366 56.5412 52.3771 56.7846 52.1119C57.0279 51.8467 57.3578 51.6976 57.7019 51.6971H68.2414C68.5855 51.6976 68.9154 51.8467 69.1587 52.1119C69.4021 52.3771 69.5389 52.7366 69.5393 53.1116V66.6654C69.5389 67.0404 69.4021 67.4 69.1587 67.6651C68.9154 67.9303 68.5855 68.0795 68.2414 68.0799V68.0799Z" fill="#6C63FF"/>
<path d="M83.2399 106.742H72.7005C72.3564 106.742 72.0265 106.593 71.7832 106.328C71.5398 106.063 71.403 105.703 71.4026 105.328V91.7742C71.403 91.3992 71.5398 91.0396 71.7832 90.7745C72.0265 90.5093 72.3564 90.3601 72.7005 90.3597H83.2399C83.5841 90.3601 83.914 90.5093 84.1573 90.7745C84.4006 91.0396 84.5375 91.3992 84.5379 91.7742V105.328C84.5375 105.703 84.4006 106.063 84.1573 106.328C83.914 106.593 83.5841 106.742 83.2399 106.742V106.742Z" fill="#6C63FF"/>
<path d="M117.275 76.2525H106.736C106.392 76.252 106.062 76.1029 105.819 75.8377C105.575 75.5725 105.438 75.213 105.438 74.838V61.2842C105.438 60.9092 105.575 60.5497 105.819 60.2845C106.062 60.0193 106.392 59.8701 106.736 59.8697H117.275C117.619 59.8701 117.949 60.0193 118.193 60.2845C118.436 60.5497 118.573 60.9092 118.573 61.2842V74.838C118.573 75.213 118.436 75.5725 118.193 75.8377C117.949 76.1029 117.619 76.252 117.275 76.2525V76.2525Z" fill="#6C63FF"/>
<path d="M161.406 61.479H150.866C150.522 61.4785 150.192 61.3294 149.949 61.0642C149.706 60.799 149.569 60.4395 149.568 60.0645V46.5107C149.569 46.1357 149.706 45.7762 149.949 45.511C150.192 45.2458 150.522 45.0966 150.866 45.0962H161.406C161.75 45.0966 162.08 45.2458 162.323 45.511C162.566 45.7762 162.703 46.1357 162.704 46.5107V60.0645C162.703 60.4395 162.566 60.799 162.323 61.0642C162.08 61.3294 161.75 61.4785 161.406 61.479V61.479Z" fill="#6C63FF"/>
<path d="M202.075 61.479H191.536C191.192 61.4785 190.862 61.3294 190.618 61.0642C190.375 60.799 190.238 60.4395 190.238 60.0645V46.5107C190.238 46.1357 190.375 45.7762 190.618 45.511C190.862 45.2458 191.192 45.0966 191.536 45.0962H202.075C202.419 45.0966 202.749 45.2458 202.992 45.511C203.236 45.7762 203.373 46.1357 203.373 46.5107V60.0645C203.373 60.4395 203.236 60.799 202.992 61.0642C202.749 61.3294 202.419 61.4785 202.075 61.479V61.479Z" fill="#6C63FF"/>
<path d="M220.823 65.2509H210.284C209.94 65.2505 209.61 65.1013 209.367 64.8361C209.123 64.571 208.986 64.2114 208.986 63.8364V50.2826C208.986 49.9076 209.123 49.5481 209.367 49.2829C209.61 49.0177 209.94 48.8686 210.284 48.8682H220.823C221.168 48.8686 221.497 49.0177 221.741 49.2829C221.984 49.5481 222.121 49.9076 222.121 50.2826V63.8364C222.121 64.2114 221.984 64.571 221.741 64.8362C221.497 65.1013 221.168 65.2505 220.823 65.2509Z" fill="#E6E6E6"/>
<path d="M212.459 89.4543H201.919C201.575 89.4539 201.245 89.3047 201.002 89.0395C200.759 88.7744 200.622 88.4148 200.621 88.0398V74.486C200.622 74.111 200.759 73.7515 201.002 73.4863C201.245 73.2211 201.575 73.072 201.919 73.0716H212.459C212.803 73.072 213.133 73.2211 213.376 73.4863C213.619 73.7515 213.756 74.111 213.757 74.486V88.0398C213.756 88.4148 213.619 88.7744 213.376 89.0396C213.133 89.3047 212.803 89.4539 212.459 89.4543Z" fill="#E6E6E6"/>
<path d="M176.693 84.425H166.153C165.809 84.4246 165.479 84.2755 165.236 84.0103C164.993 83.7451 164.856 83.3856 164.855 83.0106V69.4568C164.856 69.0818 164.993 68.7222 165.236 68.4571C165.479 68.1919 165.809 68.0427 166.153 68.0423H176.693C177.037 68.0427 177.367 68.1919 177.61 68.4571C177.854 68.7222 177.99 69.0818 177.991 69.4568V83.0106C177.99 83.3856 177.854 83.7451 177.61 84.0103C177.367 84.2755 177.037 84.4246 176.693 84.425Z" fill="#FF6584"/>
<path d="M156.214 89.4543H145.675C145.33 89.4539 145.001 89.3047 144.757 89.0395C144.514 88.7744 144.377 88.4148 144.377 88.0398V74.486C144.377 74.111 144.514 73.7515 144.757 73.4863C145.001 73.2211 145.33 73.072 145.675 73.0716H156.214C156.558 73.072 156.888 73.2211 157.131 73.4863C157.375 73.7515 157.512 74.111 157.512 74.486V88.0398C157.512 88.4148 157.375 88.7744 157.131 89.0396C156.888 89.3047 156.558 89.4539 156.214 89.4543V89.4543Z" fill="#E6E6E6"/>
<path d="M112.083 110.829H101.544C101.2 110.828 100.87 110.679 100.627 110.414C100.383 110.149 100.246 109.789 100.246 109.414V95.8605C100.246 95.4855 100.383 95.1259 100.627 94.8607C100.87 94.5956 101.2 94.4464 101.544 94.446H112.083C112.428 94.4464 112.757 94.5956 113.001 94.8607C113.244 95.1259 113.381 95.4855 113.381 95.8605V109.414C113.381 109.789 113.244 110.149 113.001 110.414C112.757 110.679 112.428 110.828 112.083 110.829Z" fill="#E6E6E6"/>
<path d="M58.723 92.912H48.1836C47.8395 92.9115 47.5096 92.7624 47.2662 92.4972C47.0229 92.232 46.886 91.8725 46.8857 91.4975V77.9437C46.886 77.5687 47.0229 77.2091 47.2662 76.944C47.5096 76.6788 47.8395 76.5296 48.1836 76.5292H58.723C59.0671 76.5296 59.3971 76.6788 59.6404 76.944C59.8837 77.2091 60.0206 77.5687 60.021 77.9437V91.4975C60.0206 91.8725 59.8837 92.232 59.6404 92.4972C59.3971 92.7624 59.0671 92.9115 58.723 92.912V92.912Z" fill="#FF6584"/>
<path d="M88.4318 68.0799H77.8923C77.5482 68.0795 77.2183 67.9303 76.975 67.6651C76.7316 67.4 76.5948 67.0404 76.5944 66.6654V53.1116C76.5948 52.7366 76.7316 52.3771 76.975 52.1119C77.2183 51.8467 77.5482 51.6976 77.8923 51.6971H88.4318C88.7759 51.6976 89.1058 51.8467 89.3491 52.1119C89.5925 52.3771 89.7293 52.7366 89.7297 53.1116V66.6654C89.7293 67.0404 89.5925 67.4 89.3491 67.6651C89.1058 67.9303 88.7759 68.0795 88.4318 68.0799V68.0799Z" fill="#E6E6E6"/>
<path d="M79.803 30.49H63.3623C63.0563 30.49 62.7628 30.3575 62.5464 30.1217C62.3301 29.8859 62.2085 29.5661 62.2085 29.2327C62.2085 28.8992 62.3301 28.5794 62.5464 28.3436C62.7628 28.1078 63.0563 27.9753 63.3623 27.9753H79.803C80.109 27.9753 80.4025 28.1078 80.6189 28.3436C80.8352 28.5794 80.9568 28.8992 80.9568 29.2327C80.9568 29.5661 80.8352 29.8859 80.6189 30.1217C80.4025 30.3575 80.109 30.49 79.803 30.49Z" fill="#CCCCCC"/>
<path d="M126.241 30.49H109.8C109.494 30.49 109.201 30.3575 108.984 30.1217C108.768 29.8859 108.647 29.5661 108.647 29.2327C108.647 28.8992 108.768 28.5794 108.984 28.3436C109.201 28.1078 109.494 27.9753 109.8 27.9753H126.241C126.547 27.9753 126.84 28.1078 127.057 28.3436C127.273 28.5794 127.395 28.8992 127.395 29.2327C127.395 29.5661 127.273 29.8859 127.057 30.1217C126.84 30.3575 126.547 30.49 126.241 30.49Z" fill="#CCCCCC"/>
<path d="M169.795 30.49H153.354C153.048 30.49 152.754 30.3575 152.538 30.1217C152.322 29.8859 152.2 29.5661 152.2 29.2327C152.2 28.8992 152.322 28.5794 152.538 28.3436C152.754 28.1078 153.048 27.9753 153.354 27.9753H169.795C170.101 27.9753 170.394 28.1078 170.611 28.3436C170.827 28.5794 170.948 28.8992 170.948 29.2327C170.948 29.5661 170.827 29.8859 170.611 30.1217C170.394 30.3575 170.101 30.49 169.795 30.49Z" fill="#CCCCCC"/>
<path d="M210.464 30.49H194.023C193.717 30.49 193.424 30.3575 193.207 30.1217C192.991 29.8859 192.869 29.5661 192.869 29.2327C192.869 28.8992 192.991 28.5794 193.207 28.3436C193.424 28.1078 193.717 27.9753 194.023 27.9753H210.464C210.77 27.9753 211.063 28.1078 211.28 28.3436C211.496 28.5794 211.618 28.8992 211.618 29.2327C211.618 29.5661 211.496 29.8859 211.28 30.1217C211.063 30.3575 210.77 30.49 210.464 30.49Z" fill="#CCCCCC"/>
<path d="M42.9794 122.554C42.5574 122.509 42.1496 122.364 41.7847 122.129C41.4198 121.893 41.1067 121.574 40.8675 121.192C40.6282 120.811 40.4687 120.377 40.4 119.921C40.3313 119.465 40.3552 118.998 40.47 118.553L33.0766 111.053L36.9857 109.972L44.2559 116.398C44.9289 116.658 45.491 117.177 45.8359 117.859C46.1807 118.54 46.2842 119.335 46.1269 120.094C45.9696 120.853 45.5622 121.523 44.9822 121.976C44.4021 122.43 43.6895 122.635 42.9794 122.554V122.554Z" fill="#FFB8B8"/>
<path d="M53.1885 177.99H56.7247L58.4069 163.126H53.188L53.1885 177.99Z" fill="#FFB8B8"/>
<path d="M63.5445 181.568L52.4309 181.569L52.4307 176.889L59.2504 176.889C60.3892 176.889 61.4814 177.382 62.2867 178.259C63.092 179.137 63.5444 180.327 63.5445 181.568V181.568L63.5445 181.568Z" fill="#2F2E41"/>
<path d="M28.943 175.208L32.3604 176.199L37.4948 162.307L32.4515 160.844L28.943 175.208Z" fill="#FFB8B8"/>
<path d="M38.106 181.569L27.3663 178.454L28.4708 173.932L35.061 175.844C36.1615 176.163 37.1006 176.946 37.6716 178.019C38.2426 179.093 38.3989 180.37 38.106 181.569V181.569V181.569Z" fill="#2F2E41"/>
<path d="M57.6757 175.176H52.2799C51.939 175.177 51.6101 175.039 51.3578 174.79C51.1056 174.54 50.9482 174.196 50.9167 173.827L47.6411 136.757C47.6171 136.485 47.5071 136.231 47.33 136.038C47.1529 135.844 46.9196 135.724 46.6702 135.698C46.4207 135.671 46.1705 135.74 45.9624 135.892C45.7543 136.044 45.6013 136.271 45.5295 136.532L36.0188 171.171C35.9182 171.54 35.6911 171.851 35.3848 172.041C35.0784 172.231 34.7166 172.285 34.3747 172.192L29.3551 170.824C29.1799 170.776 29.0151 170.691 28.8701 170.574C28.7252 170.456 28.603 170.309 28.5106 170.14C28.4182 169.971 28.3574 169.783 28.3316 169.589C28.3059 169.394 28.3158 169.195 28.3608 169.005C28.4427 168.656 36.5554 134.105 36.6262 133.75C38.4644 118.987 40.6635 115.031 41.8449 112.906C41.9427 112.73 42.0325 112.568 42.1134 112.415C42.2147 112.224 42.8381 110.326 43.2336 109.094C43.285 108.894 43.3739 108.707 43.4948 108.546C43.6157 108.385 43.7659 108.253 43.936 108.158C48.9001 105.392 54.7082 107.307 56.3701 107.96C56.6456 108.065 56.8823 108.266 57.0445 108.53C62.03 116.725 59.5834 164.321 59.0423 173.779C59.0198 174.158 58.866 174.512 58.6122 174.772C58.3584 175.031 58.0236 175.176 57.6757 175.176V175.176Z" fill="#2F2E41"/>
<path d="M43.751 81.2811C47.6635 81.2811 50.8353 77.8246 50.8353 73.5608C50.8353 69.297 47.6635 65.8405 43.751 65.8405C39.8385 65.8405 36.6667 69.297 36.6667 73.5608C36.6667 77.8246 39.8385 81.2811 43.751 81.2811Z" fill="#FFB8B8"/>
<path d="M43.0003 110.593L42.9494 110.539C42.8539 110.439 33.415 100.361 34.6366 91.0433C35.159 87.0577 38.1181 84.5111 43.1938 83.6783C45.0585 83.3765 46.9605 83.8184 48.5502 84.9226C50.1399 86.0268 51.3105 87.7192 51.8468 89.6887L56.8655 108.386L43.0003 110.593Z" fill="#CCCCCC"/>
<path d="M38.1694 117.761L31.4435 110.477C30.9837 109.977 30.6498 109.355 30.474 108.673C30.2982 107.991 30.2865 107.271 30.4399 106.582L33.6959 92.1487C33.7934 91.7162 33.9714 91.3101 34.2187 90.9555C34.4661 90.601 34.7776 90.3056 35.1339 90.0875C35.4903 89.8694 35.8839 89.7334 36.2905 89.6878C36.697 89.6423 37.1078 89.6881 37.4974 89.8225C38.2401 90.0834 38.8604 90.649 39.227 91.3997C39.5936 92.1503 39.6777 93.027 39.4614 93.844L36.0335 106.542L41.5767 113.029L38.1694 117.761Z" fill="#CCCCCC"/>
<path d="M74.2443 92.9041C74.0665 93.3236 73.8064 93.6955 73.4825 93.9936C73.1585 94.2917 72.7784 94.5087 72.3691 94.6295C71.9598 94.7502 71.5312 94.7717 71.1135 94.6924C70.6958 94.6131 70.2991 94.4349 69.9514 94.1704L60.9726 99.242L61.3694 94.9338L69.3293 89.5654C69.7757 88.9583 70.411 88.5507 71.1147 88.4199C71.8184 88.2891 72.5417 88.4442 73.1476 88.8557C73.7534 89.2672 74.1997 89.9066 74.4018 90.6528C74.604 91.3989 74.5479 92.2 74.2444 92.9041H74.2443Z" fill="#FFB8B8"/>
<path d="M68.9709 96.1109L60.2179 100.233C59.6353 100.505 58.9983 100.609 58.368 100.536C57.7378 100.462 57.1355 100.213 56.6191 99.8122L45.4888 91.1213C45.1566 90.8619 44.8768 90.5309 44.6666 90.1489C44.4565 89.767 44.3206 89.342 44.2672 88.9005C44.2139 88.4589 44.2442 88.0102 44.3564 87.5819C44.4686 87.1537 44.6603 86.7551 44.9195 86.4108C45.4177 85.7562 46.1301 85.3387 46.9059 85.2467C47.6816 85.1547 48.4598 85.3955 49.0755 85.9179L58.6193 94.1037L66.2052 90.9053L68.9709 96.1109Z" fill="#CCCCCC"/>
<path d="M44.9254 76.0347C45.7994 74.8413 47.4322 74.7772 48.6326 73.99C50.2051 72.9589 50.8552 70.6547 50.3485 68.7325C49.8418 66.8103 48.3473 65.3123 46.6339 64.5959C44.9205 63.8794 43.0142 63.8706 41.2068 64.2169C38.5156 64.7325 35.8661 66.1013 34.2247 68.482C32.5834 70.8627 32.1657 74.3492 33.6532 76.8471C34.3369 77.9951 35.3922 78.9428 35.6652 80.2787C36.0235 82.0325 34.8947 83.724 33.6853 84.9452C32.3075 86.3365 30.7268 87.5018 29.5198 89.0702C28.3127 90.6385 27.5077 92.7812 28.0585 94.7382C28.52 96.3779 29.863 97.5859 31.3356 98.1908C32.8082 98.7958 34.412 98.8832 35.9855 98.9167C37.5134 98.9493 39.1363 98.9088 40.4234 98.011C41.8013 97.0499 42.537 95.2266 42.5913 93.4447C42.6457 91.6629 42.0993 89.9172 41.367 88.3229C40.9305 87.3726 40.4231 86.4518 40.133 85.4373C39.843 84.4227 39.7928 83.2715 40.2572 82.3371C40.7455 81.3549 41.7332 80.7626 42.739 80.5472C42.7912 80.536 42.8465 80.5261 42.9043 80.5172C43.1905 80.4767 43.4662 80.3734 43.7147 80.2136C43.9631 80.0537 44.1793 79.8406 44.3501 79.5871C44.5208 79.3336 44.6426 79.045 44.7081 78.7387C44.7736 78.4324 44.7814 78.1149 44.7311 77.8052C44.6165 77.1092 44.6264 76.443 44.9254 76.0347Z" fill="#2F2E41"/>
<path d="M139.38 178.319H135.844L134.162 163.455L139.381 163.456L139.38 178.319Z" fill="#A0616A"/>
<path d="M133.318 177.218H140.138V181.898H129.024C129.024 181.283 129.135 180.675 129.351 180.107C129.567 179.539 129.883 179.023 130.282 178.589C130.68 178.154 131.154 177.81 131.675 177.574C132.196 177.339 132.754 177.218 133.318 177.218Z" fill="#2F2E41"/>
<path d="M165.038 173.954L161.821 175.555L154.624 162.797L159.371 160.434L165.038 173.954Z" fill="#A0616A"/>
<path d="M159.104 175.697L165.307 172.61L167.091 176.866L156.982 181.898C156.748 181.339 156.617 180.735 156.597 180.121C156.577 179.507 156.668 178.894 156.865 178.319C157.062 177.743 157.361 177.215 157.745 176.765C158.129 176.316 158.591 175.953 159.104 175.697V175.697Z" fill="#2F2E41"/>
<path d="M154.74 128.202C155.079 127.924 155.357 127.568 155.557 127.16C155.756 126.752 155.87 126.302 155.892 125.84C155.914 125.379 155.843 124.918 155.684 124.489C155.525 124.061 155.282 123.676 154.971 123.361L159.128 113.083L153.847 114.058L150.709 123.669C150.259 124.273 150.027 125.036 150.058 125.813C150.089 126.59 150.38 127.328 150.877 127.887C151.374 128.445 152.042 128.786 152.754 128.844C153.466 128.902 154.172 128.673 154.74 128.202Z" fill="#A0616A"/>
<path d="M139.155 174.4H135.777C135.449 174.399 135.134 174.263 134.894 174.02C134.654 173.777 134.507 173.444 134.482 173.088L132.64 119.476C132.626 119.271 132.654 119.065 132.721 118.872C132.788 118.68 132.893 118.505 133.028 118.361C133.163 118.218 133.326 118.108 133.504 118.039C133.682 117.971 133.872 117.946 134.06 117.966L153.597 120.227C153.914 120.261 154.208 120.42 154.424 120.675C154.64 120.93 154.763 121.262 154.769 121.608L155.179 145.257C155.181 145.385 155.204 145.512 155.246 145.632L163.26 168.28C163.322 168.455 163.352 168.642 163.347 168.83C163.342 169.017 163.303 169.202 163.232 169.372C163.161 169.543 163.059 169.697 162.933 169.825C162.807 169.952 162.659 170.052 162.498 170.116L159.075 171.491C158.777 171.61 158.45 171.607 158.155 171.482C157.86 171.356 157.617 171.118 157.472 170.811L147.627 149.949C147.573 149.836 147.534 149.715 147.51 149.59L145.828 140.759C145.779 140.503 145.649 140.274 145.459 140.114C145.27 139.953 145.034 139.872 144.794 139.884C144.554 139.896 144.326 140 144.151 140.178C143.976 140.357 143.864 140.598 143.837 140.857L140.444 173.146C140.408 173.492 140.257 173.81 140.019 174.041C139.781 174.272 139.473 174.4 139.155 174.4V174.4Z" fill="#2F2E41"/>
<path d="M140.837 77.5574C144.749 77.5574 147.921 74.1009 147.921 69.8371C147.921 65.5733 144.749 62.1169 140.837 62.1169C136.924 62.1169 133.753 65.5733 133.753 69.8371C133.753 74.1009 136.924 77.5574 140.837 77.5574Z" fill="#A0616A"/>
<path d="M145.695 124.379C140.891 124.321 136.201 122.773 132.175 119.916L132.106 119.864L132.113 119.773L134.823 85.38C134.917 84.2132 135.395 83.1227 136.169 82.3102C136.943 81.4976 137.961 81.018 139.034 80.9601C142.546 80.7842 147.263 81.006 149.789 83.0555C153.605 86.1531 155.444 90.8176 154.835 95.8527C153.572 106.294 155.003 120.38 155.17 121.951L155.182 122.065L155.087 122.112C152.145 123.604 148.94 124.377 145.695 124.379V124.379Z" fill="#6C63FF"/>
<path d="M155.137 122.01C154.938 122.009 154.74 121.964 154.558 121.876C154.375 121.788 154.211 121.66 154.076 121.5L152.526 119.657C152.359 119.457 152.241 119.213 152.185 118.949C152.129 118.685 152.137 118.41 152.206 118.15L155.74 105.117L150.363 92.8128C150.112 92.2369 150.051 91.5843 150.189 90.9647C150.311 90.4209 150.582 89.9302 150.965 89.5572C151.348 89.1843 151.826 88.9467 152.335 88.8757C152.845 88.8048 153.362 88.9038 153.819 89.1598C154.276 89.4158 154.651 89.8167 154.895 90.3097L162.19 103.21C162.487 103.734 162.661 104.328 162.697 104.942C162.733 105.556 162.631 106.17 162.398 106.73L156.454 121.084C156.356 121.322 156.205 121.528 156.015 121.687C155.826 121.845 155.603 121.949 155.367 121.989C155.291 122.003 155.214 122.009 155.137 122.01V122.01Z" fill="#6C63FF"/>
<path d="M105.203 97.113C105.543 97.3888 105.935 97.58 106.35 97.673C106.766 97.766 107.195 97.7586 107.607 97.6514C108.019 97.5442 108.405 97.3397 108.737 97.0524C109.07 96.7651 109.34 96.4019 109.529 95.9885L119.751 97.4332L117.402 92.1875L108.055 91.6198C107.397 91.3192 106.66 91.2922 105.985 91.5439C105.309 91.7957 104.742 92.3088 104.39 92.9859C104.039 93.663 103.927 94.4571 104.077 95.2178C104.227 95.9784 104.628 96.6528 105.203 97.113V97.113Z" fill="#A0616A"/>
<path d="M127.733 99.9779C127.555 99.9779 127.377 99.9645 127.201 99.9378L111.121 97.5073C110.858 97.468 110.608 97.358 110.394 97.1872C110.18 97.0165 110.008 96.7904 109.894 96.5293C109.858 96.4452 109.827 96.3581 109.803 96.2687H109.803C109.741 96.0366 109.723 95.793 109.752 95.5533C109.78 95.3135 109.854 95.0828 109.969 94.8757L111.299 92.4714C111.442 92.2145 111.644 92.0019 111.884 91.8541C112.124 91.7062 112.395 91.6281 112.671 91.6271H112.673L126.69 91.6446L137.158 81.4236C137.645 80.9491 138.267 80.6717 138.92 80.6379C139.493 80.609 140.06 80.77 140.548 81.0997C141.035 81.4294 141.419 81.9122 141.649 82.4847C141.879 83.0571 141.945 83.6921 141.838 84.306C141.73 84.9199 141.454 85.4839 141.046 85.9235L130.601 98.5841C130.239 99.0227 129.797 99.3735 129.303 99.6136C128.809 99.8538 128.274 99.9779 127.733 99.9779V99.9779Z" fill="#6C63FF"/>
<path d="M141.642 76.7053C142.29 75.0725 142.837 72.898 141.596 71.7435C140.875 71.0739 139.838 71.0725 138.894 70.9892C136.236 70.7545 133.499 69.4215 132.2 66.883C130.9 64.3445 131.626 60.5698 134.077 59.4246C135.73 58.6526 137.624 59.1785 139.354 59.713L144.548 61.3179C146.091 61.7948 147.711 62.3207 148.822 63.5816C150.594 65.5924 150.461 68.9917 149.054 71.3198C147.647 73.6478 145.527 76.0758 143.101 76.9597L141.642 76.7053Z" fill="#2F2E41"/>
<path d="M213.293 182H0.343424C0.298239 182 0.253475 181.991 0.211692 181.972C0.16991 181.953 0.131935 181.926 0.099938 181.891C0.0679415 181.856 0.0425542 181.815 0.0252327 181.769C0.00791108 181.724 -0.00100708 181.675 -0.00100708 181.626C-0.00100708 181.576 0.00791108 181.528 0.0252327 181.482C0.0425542 181.437 0.0679415 181.395 0.099938 181.361C0.131935 181.326 0.16991 181.298 0.211692 181.28C0.253475 181.261 0.298239 181.251 0.343424 181.251H213.293C213.338 181.251 213.383 181.261 213.425 181.28C213.467 181.298 213.505 181.326 213.537 181.361C213.569 181.395 213.594 181.437 213.611 181.482C213.629 181.528 213.637 181.576 213.637 181.626C213.637 181.675 213.629 181.724 213.611 181.769C213.594 181.815 213.569 181.856 213.537 181.891C213.505 181.926 213.467 181.953 213.425 181.972C213.383 181.991 213.338 182 213.293 182V182Z" fill="#3F3D56"/>
</g>
<defs>
<clipPath id="clip0">
<rect width="237" height="182" fill="white"/>
</clipPath>
</defs>
</svg>
