<svg width="551" height="487" viewBox="0 0 551 487" fill="none" xmlns="http://www.w3.org/2000/svg">
<path opacity="0.18" d="M549.448 311.981C543.955 370.12 499.93 424.759 443.993 431.774C401.412 437.112 359.019 416.263 316.282 420.12C263.766 424.808 221.86 462.243 172.655 478.519C136.415 490.564 93.9757 491.654 63.0563 468.753C50.767 459.622 41.0831 447.269 32.4194 434.411C23.1669 421.075 15.5191 406.618 9.64579 391.36C3.47369 374.35 0.356529 356.311 0.448447 338.137V335.679C1.13903 292.971 17.9799 250.115 45.7603 218.1C53.6079 209.067 62.2559 200.75 69.0362 190.854C90.2717 159.929 90.256 118.327 105.967 83.9679C122.635 47.6069 152.801 29.8333 186.593 16.4705C191.427 14.5499 196.339 12.727 201.283 10.9529C240.38 -3.0609 289.474 -4.68852 328.1 11.8481C374.824 31.8515 398.257 77.3598 431.861 112.76C447.728 129.46 467.049 142.058 484.141 157.471C513.302 183.643 535.762 219.158 545.179 257.602C549.642 275.333 551.087 293.735 549.448 311.981Z" fill="#E7FD68"/>
</svg>
